<svg width="1152" height="700" viewBox="0 0 1152 700" fill="none" xmlns="http://www.w3.org/2000/svg">
<g clip-path="url(#clip0_6:48)">
<path d="M1152 -68H0V700H1152V-68Z" fill="#118AB2"/>
<g filter="url(#filter0_f_6:48)">
<path d="M638.72 1098.08C891.092 1098.08 1095.68 893.492 1095.68 641.12C1095.68 388.748 891.092 184.16 638.72 184.16C386.348 184.16 181.76 388.748 181.76 641.12C181.76 893.492 386.348 1098.08 638.72 1098.08Z" fill="#06D6A0"/>
<path d="M953.6 629.6C1205.97 629.6 1410.56 425.012 1410.56 172.64C1410.56 -79.732 1205.97 -284.32 953.6 -284.32C701.228 -284.32 496.64 -79.732 496.64 172.64C496.64 425.012 701.228 629.6 953.6 629.6Z" fill="#118AB2"/>
<path d="M510.72 423.52C763.092 423.52 967.68 218.932 967.68 -33.44C967.68 -285.812 763.092 -490.4 510.72 -490.4C258.348 -490.4 53.76 -285.812 53.76 -33.44C53.76 218.932 258.348 423.52 510.72 423.52Z" fill="#06D6A0"/>
<path d="M368.64 1022.56C621.012 1022.56 825.6 817.972 825.6 565.6C825.6 313.228 621.012 108.64 368.64 108.64C116.268 108.64 -88.32 313.228 -88.32 565.6C-88.32 817.972 116.268 1022.56 368.64 1022.56Z" fill="#06D6A0"/>
<path d="M861.44 865.12C1113.81 865.12 1318.4 660.532 1318.4 408.16C1318.4 155.788 1113.81 -48.8 861.44 -48.8C609.068 -48.8 404.48 155.788 404.48 408.16C404.48 660.532 609.068 865.12 861.44 865.12Z" fill="#118AB2"/>
<path d="M879.36 397.92C1131.73 397.92 1336.32 193.332 1336.32 -59.04C1336.32 -311.412 1131.73 -516 879.36 -516C626.988 -516 422.4 -311.412 422.4 -59.04C422.4 193.332 626.988 397.92 879.36 397.92Z" fill="#06D6A0"/>
</g>
</g>
<defs>
<filter id="filter0_f_6:48" x="-410.32" y="-838" width="2142.88" height="2258.08" filterUnits="userSpaceOnUse" color-interpolation-filters="sRGB">
<feFlood flood-opacity="0" result="BackgroundImageFix"/>
<feBlend mode="normal" in="SourceGraphic" in2="BackgroundImageFix" result="shape"/>
<feGaussianBlur stdDeviation="161" result="effect1_foregroundBlur_6:48"/>
</filter>
<clipPath id="clip0_6:48">
<rect width="1152" height="768" fill="white" transform="translate(0 -68)"/>
</clipPath>
</defs>
</svg>
