<svg width="23" height="19" viewBox="0 0 23 19" fill="none" xmlns="http://www.w3.org/2000/svg">
<path d="M11.5 3.03462C12.814 2.16162 14.5982 1.625 16.5625 1.625C18.5279 1.625 20.311 2.16162 21.625 3.03462V17.6596C20.311 16.7866 18.5279 16.25 16.5625 16.25C14.5982 16.25 12.814 16.7866 11.5 17.6596M11.5 3.03462V17.6596V3.03462ZM11.5 3.03462C10.186 2.16162 8.40175 1.625 6.4375 1.625C4.47325 1.625 2.689 2.16162 1.375 3.03462V17.6596C2.689 16.7866 4.47325 16.25 6.4375 16.25C8.40175 16.25 10.186 16.7866 11.5 17.6596V3.03462Z" stroke="white" stroke-width="2" stroke-linecap="round" stroke-linejoin="round"/>
</svg>
