<svg width="16" height="16" viewBox="0 0 16 16" fill="none" xmlns="http://www.w3.org/2000/svg">
<path d="M7.637 13V3.669H6.379V7.62H1.758V3.67H0.5V13H1.758V8.728H6.378V13H7.637V13ZM11.262 8.728H12.28C13.422 8.728 14.215 9.398 14.229 10.402C14.242 11.407 13.449 12.139 12.219 12.132C11.139 12.125 10.366 11.544 10.284 10.812H9.108C9.177 12.139 10.332 13.198 12.191 13.198C14.126 13.198 15.534 12.043 15.5 10.409C15.473 8.899 14.249 8.249 13.463 8.16V8.092C14.167 7.969 15.227 7.182 15.186 5.863C15.151 4.51 14.01 3.463 12.232 3.478C10.359 3.484 9.375 4.64 9.334 5.836H10.53C10.592 5.146 11.241 4.537 12.226 4.537C13.224 4.537 13.921 5.159 13.921 6.062C13.928 6.984 13.203 7.654 12.226 7.654H11.262V8.728V8.728Z" fill="black"/>
</svg>
