<svg width="16" height="16" viewBox="0 0 16 16" fill="none" xmlns="http://www.w3.org/2000/svg">
<path d="M5.85404 4.85399C5.90053 4.8075 5.9374 4.75231 5.96256 4.69157C5.98772 4.63083 6.00067 4.56573 6.00067 4.49999C6.00067 4.43425 5.98772 4.36915 5.96256 4.30841C5.9374 4.24767 5.90053 4.19248 5.85404 4.14599C5.80755 4.0995 5.75236 4.06263 5.69162 4.03747C5.63088 4.01231 5.56578 3.99936 5.50004 3.99936C5.4343 3.99936 5.3692 4.01231 5.30846 4.03747C5.24772 4.06263 5.19253 4.0995 5.14604 4.14599L1.64604 7.64599C1.59948 7.69244 1.56253 7.74761 1.53733 7.80836C1.51212 7.8691 1.49915 7.93422 1.49915 7.99999C1.49915 8.06576 1.51212 8.13088 1.53733 8.19162C1.56253 8.25237 1.59948 8.30754 1.64604 8.35399L5.14604 11.854C5.23993 11.9479 5.36726 12.0006 5.50004 12.0006C5.63281 12.0006 5.76015 11.9479 5.85404 11.854C5.94793 11.7601 6.00067 11.6328 6.00067 11.5C6.00067 11.3672 5.94793 11.2399 5.85404 11.146L2.70704 7.99999L5.85404 4.85399V4.85399ZM10.146 4.85399C10.0522 4.7601 9.99941 4.63277 9.99941 4.49999C9.99941 4.36721 10.0522 4.23988 10.146 4.14599C10.2399 4.0521 10.3673 3.99936 10.5 3.99936C10.6328 3.99936 10.7602 4.0521 10.854 4.14599L14.354 7.64599C14.4006 7.69244 14.4375 7.74761 14.4628 7.80836C14.488 7.8691 14.5009 7.93422 14.5009 7.99999C14.5009 8.06576 14.488 8.13088 14.4628 8.19162C14.4375 8.25237 14.4006 8.30754 14.354 8.35399L10.854 11.854C10.7602 11.9479 10.6328 12.0006 10.5 12.0006C10.3673 12.0006 10.2399 11.9479 10.146 11.854C10.0522 11.7601 9.99941 11.6328 9.99941 11.5C9.99941 11.3672 10.0522 11.2399 10.146 11.146L13.293 7.99999L10.146 4.85399V4.85399Z" fill="black"/>
</svg>
