<svg width="16" height="16" viewBox="0 0 16 16" fill="none" xmlns="http://www.w3.org/2000/svg">
<path d="M7.638 13V3.669H6.38V7.62H1.759V3.67H0.5V13H1.758V8.728H6.378V13H7.637H7.638ZM10.66 6.267V6.219C10.66 5.33 11.29 4.551 12.376 4.551C13.333 4.551 14.051 5.159 14.051 6.123C14.051 6.978 13.497 7.627 12.984 8.208L9.471 12.207V13H15.5V11.906H11.255V11.831L13.736 8.987C14.611 7.989 15.322 7.203 15.322 6.034C15.322 4.571 14.167 3.478 12.403 3.478C10.462 3.478 9.437 4.804 9.437 6.218V6.267H10.66V6.267Z" fill="#AAAAAA"/>
</svg>
