<svg width="26" height="26" viewBox="0 0 26 26" fill="none" xmlns="http://www.w3.org/2000/svg">
<path d="M12.9571 10.6509L6.5 16.9H10.4V24.7H15.6V16.9H19.5L12.9571 10.6509ZM23.4 1.29999H2.6C1.17 1.29999 0 2.46999 0 3.89999V19.5C0 20.93 1.17 22.1 2.6 22.1H7.8V19.5H2.6V7.79999H23.4V19.5H18.2V22.1H23.4C24.83 22.1 26 20.93 26 19.5V3.89999C26 2.46999 24.83 1.29999 23.4 1.29999ZM3.25 5.52499C3.12196 5.52499 2.99518 5.49977 2.87688 5.45077C2.75859 5.40177 2.65111 5.32995 2.56057 5.23942C2.47003 5.14888 2.39822 5.0414 2.34922 4.9231C2.30022 4.80481 2.275 4.67803 2.275 4.54999C2.275 4.42195 2.30022 4.29516 2.34922 4.17687C2.39822 4.05858 2.47003 3.9511 2.56057 3.86056C2.65111 3.77002 2.75859 3.6982 2.87688 3.6492C2.99518 3.60021 3.12196 3.57499 3.25 3.57499C3.50859 3.57499 3.75658 3.67771 3.93943 3.86056C4.12228 4.04341 4.225 4.2914 4.225 4.54999C4.225 4.80857 4.12228 5.05657 3.93943 5.23942C3.75658 5.42226 3.50859 5.52499 3.25 5.52499V5.52499ZM5.85 5.52499C5.72196 5.52499 5.59518 5.49977 5.47688 5.45077C5.35859 5.40177 5.25111 5.32995 5.16057 5.23942C5.07003 5.14888 4.99822 5.0414 4.94922 4.9231C4.90022 4.80481 4.875 4.67803 4.875 4.54999C4.875 4.42195 4.90022 4.29516 4.94922 4.17687C4.99822 4.05858 5.07003 3.9511 5.16057 3.86056C5.25111 3.77002 5.35859 3.6982 5.47688 3.6492C5.59518 3.60021 5.72196 3.57499 5.85 3.57499C6.10859 3.57499 6.35658 3.67771 6.53943 3.86056C6.72228 4.04341 6.825 4.2914 6.825 4.54999C6.825 4.80857 6.72228 5.05657 6.53943 5.23942C6.35658 5.42226 6.10859 5.52499 5.85 5.52499V5.52499ZM23.4 5.19999H7.8V3.89999H23.4247L23.4 5.19999Z" fill="white"/>
</svg>
