<svg width="36" height="36" viewBox="0 0 36 36" fill="none" xmlns="http://www.w3.org/2000/svg">
<path d="M19.5 28.1H16.6C16.1 28.1 15.7 27.8 15.6 27.3L15.1 25.5L14.7 25.3L13.1 26.2C12.7 26.4 12.2 26.4 11.9 26L9.79995 23.9C9.49995 23.6 9.39995 23.1 9.59995 22.7L10.5 21.1L10.3 20.7L8.49995 20.2C8.09995 20.1 7.69995 19.7 7.69995 19.2V16.3C7.69995 15.8 7.99995 15.4 8.49995 15.3L10.3 14.8L10.5 14.4L9.59995 12.8C9.39995 12.4 9.39995 11.9 9.79995 11.6L11.9 9.49999C12.2 9.19999 12.7 9.09999 13.1 9.29999L14.7 10.2L15.1 9.99999L15.6 8.19999C15.7 7.79999 16.1 7.39999 16.6 7.39999H19.5C20 7.39999 20.4 7.69999 20.5 8.19999L21 9.99999L21.4 10.2L23 9.29999C23.4 9.09999 23.9 9.09999 24.2 9.49999L26.2999 11.6C26.5999 11.9 26.7 12.4 26.5 12.8L25.6 14.4L25.7999 14.8L27.6 15.3C28 15.4 28.4 15.8 28.4 16.3V19.2C28.4 19.7 28.1 20.1 27.6 20.2L25.7999 20.7L25.6 21.1L26.5 22.7C26.7 23.1 26.6999 23.6 26.2999 23.9L24.2 26C23.9 26.3 23.4 26.4 23 26.2L21.4 25.3L21 25.5L20.5 27.3C20.3 27.8 19.9 28.1 19.5 28.1ZM17.3 26.1H18.7L19.2 24L19.7 23.8C20.1 23.7 20.4 23.5 20.8 23.4L21.3 23.1L23.2 24.2L24.2 23.2L23.1 21.3L23.4 20.8C23.6 20.5 23.6999 20.1 23.7999 19.7L24 19.2L26.1 18.7V17.3L24 16.8L23.7999 16.3C23.6999 15.9 23.5 15.6 23.4 15.2L23.1 14.7L24.2 12.8L23.2 11.8L21.3 12.9L20.8 12.6C20.5 12.4 20.1 12.3 19.7 12.2L19.2 12L18.7 9.89999H17.3L16.8 12L16.3 12.2C15.9 12.3 15.6 12.5 15.2 12.6L14.7 12.9L12.8 11.8L11.8 12.8L12.9 14.7L12.6 15.2C12.4 15.5 12.3 15.9 12.2 16.3L12 16.8L9.89995 17.3V18.7L12 19.2L12.2 19.7C12.3 20.1 12.5 20.4 12.6 20.8L12.9 21.3L11.8 23.2L12.8 24.2L14.7 23.1L15.2 23.4C15.5 23.6 15.9 23.7 16.3 23.8L16.8 24L17.3 26.1Z" fill="white"/>
<path d="M18 22.3C15.6 22.3 13.7 20.4 13.7 18C13.7 15.6 15.6 13.7 18 13.7C20.4 13.7 22.3 15.6 22.3 18C22.3 20.4 20.4 22.3 18 22.3ZM18 15.7C16.7 15.7 15.7 16.7 15.7 18C15.7 19.3 16.7 20.3 18 20.3C19.3 20.3 20.3 19.3 20.3 18C20.3 16.7 19.3 15.7 18 15.7V15.7Z" fill="white"/>
<path d="M18 2C17.4 2 17 2.4 17 3C17 3.6 17.4 4 18 4C25.7 4 32 10.3 32 18C32 25.7 25.7 32 18 32C10.3 32 4 25.7 4 18C4 15.2 4.8 12.5 6.4 10.2V11.4C6.4 12 6.8 12.4 7.4 12.4C8 12.4 8.4 12 8.4 11.4V6.4H3.4C2.8 6.4 2.4 6.8 2.4 7.4C2.4 8 2.8 8.4 3.4 8.4H5.2C3.1 11.1 2 14.5 2 18C2 26.8 9.2 34 18 34C26.8 34 34 26.8 34 18C34 9.2 26.8 2 18 2Z" fill="white"/>
</svg>
